<?xml version="1.0" standalone="no"?>
<!DOCTYPE svg PUBLIC "-//W3C//DTD SVG 20010904//EN"
 "http://www.w3.org/TR/2001/REC-SVG-20010904/DTD/svg10.dtd">
<svg version="1.0" xmlns="http://www.w3.org/2000/svg"
 width="2529.000000pt" height="2048.000000pt" viewBox="0 0 2529.000000 2048.000000"
 preserveAspectRatio="xMidYMid meet">

<g transform="translate(0.000000,2048.000000) scale(0.100000,-0.100000)"
fill="#000000" stroke="none">
<path d="M12110 19220 c-1959 -60 -4033 -559 -5830 -1405 -951 -447 -1836
-1010 -2537 -1613 -1322 -1137 -2106 -2474 -2282 -3892 -30 -242 -41 -425 -41
-706 0 -903 175 -1679 555 -2460 418 -860 1034 -1618 1969 -2421 212 -182 388
-325 711 -578 132 -103 239 -192 237 -198 -2 -5 -439 -1002 -973 -2214 -588
-1336 -974 -2226 -981 -2260 -28 -139 50 -291 185 -360 65 -33 178 -42 250
-20 26 8 188 100 360 205 570 346 4437 2692 4754 2884 l313 189 227 -50 c3498
-768 7096 -477 10017 811 257 113 705 336 948 472 829 463 1519 977 2118 1576
586 586 1010 1168 1345 1845 292 589 477 1175 570 1810 43 295 49 402 49 825
0 465 -11 607 -79 965 -337 1774 -1585 3392 -3545 4597 -374 230 -914 515
-1317 696 -1573 707 -3366 1137 -5273 1267 -484 32 -1294 49 -1750 35z m1525
-704 c1463 -93 2709 -323 3945 -728 1476 -484 2750 -1183 3760 -2062 161 -140
489 -465 638 -631 851 -951 1329 -2002 1413 -3105 15 -197 7 -642 -16 -850
-93 -871 -381 -1659 -883 -2425 -642 -979 -1641 -1862 -2876 -2539 -2259
-1240 -5218 -1792 -8206 -1531 -797 70 -1651 205 -2380 376 -267 63 -334 67
-420 27 -30 -14 -1072 -642 -2314 -1396 -1243 -755 -2261 -1370 -2263 -1368
-3 2 358 827 800 1832 443 1006 810 1849 817 1874 22 83 -3 200 -61 281 -11
16 -172 147 -357 291 -707 549 -1013 809 -1383 1178 -261 260 -397 409 -583
641 -820 1024 -1193 2099 -1163 3349 8 327 27 508 83 795 150 770 528 1544
1093 2235 203 248 539 597 791 822 1405 1254 3505 2232 5765 2687 643 129
1316 217 1910 251 105 6 213 12 240 14 148 10 1419 -3 1650 -18z"/>
<path d="M15505 14413 c-11 -3 -36 -17 -55 -32 -55 -44 -75 -51 -135 -51 -93
0 -125 -31 -125 -118 0 -25 -182 -382 -300 -587 -81 -142 -135 -252 -154 -313
-8 -29 -37 -95 -65 -145 -46 -86 -123 -249 -221 -464 -74 -166 -77 -299 -8
-363 39 -35 40 -35 67 -12 14 10 27 39 35 77 8 33 23 86 35 117 11 32 21 74
21 93 0 57 16 74 103 115 82 38 340 123 409 135 66 11 311 96 378 132 61 32
69 34 130 27 72 -8 106 -27 144 -83 33 -47 96 -352 96 -463 0 -52 6 -89 17
-113 16 -33 19 -35 69 -35 79 0 91 14 109 141 14 96 14 112 -1 175 -8 37 -22
126 -30 198 -8 71 -18 134 -23 140 -5 6 -16 49 -26 96 -9 47 -27 117 -40 156
-13 40 -40 145 -60 235 -120 530 -141 602 -231 796 -68 147 -80 160 -139 146z
m-81 -432 c42 -9 56 -46 226 -579 33 -103 32 -108 -22 -159 -43 -41 -91 -53
-182 -46 -64 5 -85 2 -167 -25 -160 -53 -242 -60 -322 -30 -20 8 -26 15 -21
27 4 9 13 36 21 61 7 25 68 154 134 286 66 133 128 269 139 303 23 77 65 150
93 161 25 10 59 10 101 1z"/>
<path d="M17243 14354 c-37 -19 -102 -49 -144 -65 -116 -45 -197 -109 -389
-306 -156 -161 -177 -186 -195 -238 -10 -32 -33 -76 -50 -99 -17 -22 -63 -102
-103 -177 -64 -123 -73 -146 -92 -249 -24 -134 -27 -378 -7 -530 11 -78 21
-110 56 -176 41 -81 43 -82 131 -132 86 -49 91 -51 207 -62 233 -21 463 21
601 111 71 47 260 214 289 256 61 89 185 319 207 383 19 59 26 106 32 216 3
78 4 162 0 188 l-7 46 -157 0 c-155 -1 -324 -18 -392 -40 -19 -6 -71 -16 -114
-20 -106 -12 -128 -33 -161 -156 -39 -139 -31 -187 32 -197 41 -7 69 5 78 32
9 28 27 32 203 40 144 7 160 6 190 -12 25 -14 32 -25 32 -48 0 -16 7 -41 16
-55 16 -23 15 -29 -12 -102 -44 -121 -85 -181 -181 -263 -130 -112 -167 -135
-219 -143 -26 -3 -52 -10 -59 -16 -17 -14 -151 -16 -168 -2 -8 7 -43 15 -78
18 -64 7 -213 69 -268 112 -33 26 -50 130 -50 305 -1 144 15 233 71 407 32 98
110 247 167 319 28 35 51 67 51 71 0 17 106 123 164 164 106 75 259 161 319
179 135 42 206 90 227 152 14 42 7 104 -12 117 -7 4 -43 8 -80 8 -57 0 -76 -5
-135 -36z"/>
<path d="M7475 14343 c-34 -8 -86 -65 -112 -122 -21 -46 -25 -73 -28 -180 -2
-69 -8 -218 -14 -331 -5 -113 -10 -320 -10 -461 -1 -209 -4 -259 -15 -268 -26
-21 -126 21 -238 100 -138 98 -225 171 -273 231 -22 27 -65 77 -96 111 -31 34
-75 90 -98 124 -23 35 -70 97 -106 139 -82 99 -105 174 -105 343 0 72 -5 123
-14 145 -13 30 -19 34 -75 43 -74 12 -70 16 -144 -132 -61 -122 -91 -219 -106
-345 -13 -104 -14 -324 -2 -422 5 -40 15 -129 21 -198 6 -69 18 -168 26 -220
8 -52 19 -162 24 -245 12 -211 33 -322 67 -357 15 -15 32 -28 38 -28 14 0 79
67 95 99 11 22 16 496 7 804 -2 78 0 90 17 103 35 25 64 17 109 -32 127 -140
200 -213 272 -272 44 -37 112 -94 150 -128 39 -33 95 -78 125 -99 30 -21 78
-57 105 -80 58 -49 88 -60 206 -74 132 -17 148 -15 211 24 l57 36 4 417 c4
414 25 832 48 922 6 25 14 95 19 155 l8 110 -51 48 c-50 46 -69 53 -122 40z"/>
<path d="M8870 14235 c-25 -7 -71 -18 -104 -24 -36 -6 -117 -39 -212 -85 -84
-41 -177 -85 -206 -97 -29 -13 -73 -40 -97 -61 -24 -21 -50 -38 -57 -38 -26 0
-108 -84 -160 -164 -61 -93 -127 -275 -144 -394 -5 -40 -14 -91 -20 -115 -13
-56 -13 -265 1 -383 20 -185 77 -345 151 -425 40 -44 206 -116 295 -128 157
-22 438 32 550 105 29 19 63 34 75 34 13 0 46 18 73 40 28 22 70 55 95 72 25
18 83 69 130 114 47 44 99 90 116 102 65 45 127 241 160 507 10 82 14 156 10
200 -4 39 -11 115 -16 170 -11 118 -61 279 -111 352 -56 84 -119 152 -162 177
-90 52 -263 71 -367 41z m180 -218 c39 -20 118 -125 162 -217 36 -76 42 -102
62 -246 19 -142 20 -170 9 -240 -19 -118 -33 -181 -60 -267 -23 -73 -30 -84
-121 -179 -101 -105 -138 -132 -287 -212 -138 -75 -210 -96 -324 -96 -110 0
-187 18 -230 52 -33 25 -138 161 -145 187 -3 9 -14 61 -26 116 -26 121 -21
229 17 375 30 117 53 170 102 234 21 28 55 82 75 120 35 64 134 176 157 176 5
0 28 17 52 38 80 73 139 111 205 133 100 34 307 49 352 26z"/>
<path d="M18845 14243 c-194 -24 -409 -45 -485 -48 -60 -1 -151 -39 -194 -79
-40 -38 -44 -46 -55 -121 -7 -44 -17 -100 -24 -125 -6 -28 -12 -183 -14 -405
-1 -198 -6 -459 -9 -580 -6 -211 -6 -225 20 -349 27 -133 50 -181 98 -207 59
-32 290 14 598 120 63 21 151 47 195 56 44 10 110 31 147 47 37 15 75 28 86
28 36 0 122 31 148 54 l27 23 -41 41 -42 42 -102 0 c-94 0 -114 -4 -223 -41
-182 -61 -278 -79 -437 -79 -75 0 -159 5 -186 11 l-50 10 1 127 c0 81 -6 159
-17 216 -15 74 -15 91 -4 102 20 20 149 60 288 89 69 14 179 40 245 56 66 17
167 34 225 39 127 9 207 42 237 97 25 47 11 64 -73 86 -64 17 -87 18 -294 8
-209 -9 -232 -12 -318 -41 -137 -45 -279 -59 -297 -29 -5 7 16 254 36 430 11
94 12 97 42 113 53 26 154 36 359 36 186 0 441 20 538 41 61 14 104 49 118 98
20 65 9 88 -52 105 -100 29 -366 45 -491 29z"/>
<path d="M13811 14138 c-25 -5 -55 -17 -67 -25 -31 -20 -98 -141 -249 -448
-150 -305 -197 -416 -214 -505 -7 -35 -24 -93 -37 -128 -13 -35 -22 -68 -19
-72 9 -15 -31 -36 -64 -35 -25 1 -41 10 -58 31 -12 16 -23 33 -23 37 0 5 -13
28 -30 52 -16 24 -30 48 -30 53 0 5 -22 43 -49 84 -27 41 -52 86 -56 99 -4 13
-49 105 -100 204 -50 99 -106 216 -124 260 -18 44 -60 128 -93 187 -58 103
-61 107 -113 128 l-53 21 -71 -45 c-75 -48 -89 -71 -77 -128 4 -21 0 -40 -13
-62 -70 -114 -193 -500 -210 -656 -5 -52 -14 -108 -21 -124 -18 -48 -24 -300
-11 -442 19 -192 40 -327 54 -336 62 -42 87 -35 118 34 21 48 24 73 30 278 10
280 34 499 66 605 32 102 42 150 43 199 0 46 43 125 68 127 33 2 57 -3 70 -15
14 -13 31 -46 195 -369 128 -250 260 -443 435 -634 96 -104 114 -111 170 -65
27 23 34 37 42 87 5 33 14 76 19 95 6 19 11 51 11 71 0 19 17 76 38 125 57
130 92 239 92 282 0 57 58 219 92 258 25 29 37 34 73 34 36 0 48 -5 69 -31 14
-17 26 -41 26 -54 0 -12 6 -53 14 -91 8 -38 19 -100 26 -139 14 -85 77 -311
118 -420 17 -44 40 -112 52 -152 22 -70 23 -71 72 -92 65 -27 72 -27 101 8 19
23 25 45 30 106 7 73 5 81 -37 194 -24 64 -51 157 -59 207 -26 150 -47 298
-47 326 0 15 -9 51 -20 79 -25 61 -39 164 -45 307 -2 57 -9 118 -15 137 -11
33 -9 65 16 260 5 44 3 53 -17 72 -31 28 -63 34 -118 21z"/>
<path d="M11573 14111 c-48 -35 -76 -95 -103 -224 -42 -206 -52 -480 -41
-1116 l4 -223 36 -107 c31 -88 42 -108 65 -119 34 -17 47 -12 81 32 l27 36 13
372 c14 388 29 648 45 805 6 50 10 116 10 145 0 29 9 103 21 163 l20 111 -20
55 c-39 103 -84 123 -158 70z"/>
<path d="M6839 10805 c-19 -13 -45 -32 -58 -42 -14 -10 -48 -18 -85 -21 -107
-6 -126 -21 -126 -101 0 -35 -154 -341 -308 -611 -78 -138 -152 -290 -152
-315 0 -10 -24 -63 -54 -119 -30 -56 -84 -166 -121 -246 -37 -80 -85 -182
-106 -228 -45 -97 -64 -190 -54 -269 6 -47 12 -61 43 -89 21 -19 42 -34 49
-34 18 0 42 29 49 58 11 55 23 98 43 152 11 30 20 73 21 96 0 22 6 47 13 56
31 41 251 127 469 182 73 19 158 44 188 55 30 11 81 27 113 37 32 9 79 30 104
46 43 28 53 30 124 26 73 -3 80 -5 114 -38 20 -19 43 -47 50 -61 23 -44 76
-318 84 -435 9 -140 22 -164 86 -164 73 0 91 24 109 152 14 96 14 114 1 165
-8 32 -22 118 -31 192 -8 74 -20 143 -25 152 -5 10 -18 60 -28 111 -11 51 -31
128 -45 171 -14 43 -41 151 -61 240 -105 477 -146 614 -245 805 -52 102 -52
102 -89 102 -25 0 -50 -9 -72 -25z m-28 -412 c22 -4 29 -14 39 -49 7 -25 16
-47 20 -49 7 -4 90 -253 154 -460 13 -44 27 -88 31 -97 5 -11 -6 -31 -35 -62
-52 -56 -97 -70 -191 -61 -60 6 -79 3 -161 -24 -162 -53 -277 -64 -337 -32
-19 10 -18 12 6 88 13 43 73 174 134 291 60 118 121 249 134 291 43 133 92
188 155 175 14 -3 37 -8 51 -11z"/>
<path d="M10310 10789 c-49 -38 -61 -42 -125 -47 -93 -7 -115 -21 -115 -79 0
-37 -19 -81 -112 -261 -61 -119 -146 -278 -188 -352 -100 -175 -134 -242 -158
-317 -11 -33 -46 -112 -79 -174 -110 -215 -237 -497 -254 -562 -6 -27 -9 -81
-7 -124 5 -75 6 -78 44 -110 22 -18 42 -33 47 -33 18 0 46 42 52 81 4 24 16
64 27 89 11 25 24 76 29 114 5 38 14 76 21 84 31 37 317 145 472 178 100 21
332 100 393 135 67 37 166 41 218 9 67 -41 84 -77 121 -258 19 -92 38 -215 42
-274 10 -124 23 -148 79 -148 42 0 90 24 97 47 2 10 10 59 17 108 11 79 10
103 -5 180 -9 50 -23 140 -31 200 -15 116 -33 196 -96 415 -21 74 -53 200 -69
280 -85 404 -133 559 -229 747 l-56 108 -40 3 c-34 2 -49 -4 -95 -39z m-22
-392 c40 -12 46 -18 68 -73 22 -51 84 -238 169 -507 14 -43 25 -84 25 -91 0
-7 -16 -31 -35 -53 -43 -50 -103 -68 -197 -58 -54 5 -76 2 -153 -23 -164 -54
-258 -63 -339 -33 -21 8 -25 15 -18 24 6 6 18 38 27 70 9 33 70 164 136 293
65 129 123 253 130 276 22 83 57 147 91 168 39 23 40 24 96 7z"/>
<path d="M14454 10817 c-11 -7 -37 -25 -57 -41 -31 -24 -50 -30 -110 -34 -96
-7 -117 -21 -117 -80 0 -38 -18 -80 -117 -271 -64 -124 -151 -287 -193 -361
-102 -179 -116 -206 -144 -293 -14 -41 -43 -108 -66 -148 -40 -72 -87 -169
-212 -448 -52 -115 -61 -144 -65 -210 -7 -96 7 -141 53 -176 33 -25 36 -26 59
-11 15 10 25 29 30 58 4 24 18 70 30 103 12 34 26 85 30 115 4 30 11 63 17 73
20 38 227 120 453 178 184 47 355 106 417 142 38 22 59 27 115 27 116 0 169
-51 202 -191 32 -133 61 -315 61 -382 0 -45 6 -71 21 -96 19 -32 22 -33 70
-29 74 8 84 21 99 144 12 93 11 116 -3 192 -9 48 -22 134 -28 192 -6 58 -15
113 -20 122 -5 10 -18 59 -28 110 -11 51 -31 128 -45 171 -14 43 -55 212 -92
375 -36 163 -84 351 -106 417 -44 126 -129 318 -155 348 -18 20 -68 22 -99 4z
m-59 -421 c33 -12 43 -21 56 -58 9 -23 26 -65 37 -93 34 -84 162 -496 162
-521 0 -7 -16 -31 -35 -53 -45 -49 -100 -66 -190 -56 -57 6 -77 3 -158 -23
-166 -55 -268 -64 -339 -31 -24 10 -25 14 -13 33 7 11 20 46 29 76 8 30 69
161 134 290 65 129 121 249 125 266 12 59 60 146 91 165 37 23 49 23 101 5z"/>
<path d="M16013 10819 c-48 -6 -101 -27 -245 -99 -108 -54 -186 -99 -190 -110
-4 -10 -49 -43 -100 -73 -51 -30 -112 -75 -134 -99 -48 -49 -48 -49 -85 -359
-19 -162 -20 -216 -16 -655 4 -434 6 -487 24 -561 20 -83 33 -103 91 -134 19
-11 31 -9 75 9 106 44 244 83 322 92 135 15 428 111 604 198 85 43 99 54 152
122 72 92 88 149 70 253 -14 83 -52 138 -140 204 -66 49 -147 76 -289 96 -74
11 -88 16 -106 40 l-20 27 121 123 c152 154 250 297 307 451 38 99 37 229 -1
321 -40 98 -87 129 -223 150 -112 16 -124 17 -217 4z m173 -303 c42 -41 44
-46 44 -101 0 -54 -3 -62 -43 -109 -24 -28 -76 -93 -116 -145 -126 -164 -320
-311 -432 -326 -66 -9 -159 25 -159 59 0 28 58 457 62 461 2 1 30 17 63 36 33
18 80 46 104 62 83 56 186 89 301 97 58 4 111 8 119 8 7 1 33 -18 57 -42z
m-576 -927 c99 -16 226 -57 320 -104 47 -23 130 -59 185 -80 59 -21 112 -48
128 -64 28 -27 28 -29 13 -65 -13 -32 -26 -42 -98 -75 -46 -21 -99 -43 -118
-49 -19 -6 -71 -23 -115 -37 -96 -30 -264 -52 -357 -47 l-67 4 -11 51 c-21 98
-29 192 -30 335 l0 142 43 0 c23 0 71 -5 107 -11z"/>
<path d="M9000 10746 c-79 -30 -90 -36 -95 -58 -3 -13 -10 -45 -15 -73 -6 -27
-47 -121 -92 -210 -45 -88 -98 -200 -118 -250 -21 -49 -49 -117 -63 -150 -85
-198 -197 -518 -197 -563 0 -59 -101 -302 -125 -302 -14 0 -93 75 -122 116
-43 61 -119 201 -155 284 -88 208 -137 427 -158 705 -11 154 -21 184 -69 223
-57 46 -86 37 -135 -39 l-39 -60 6 -177 c8 -202 20 -284 76 -502 43 -171 78
-255 168 -406 129 -217 267 -372 498 -558 18 -14 31 -17 63 -11 52 8 82 54 82
123 1 26 9 85 19 132 11 47 29 130 41 185 12 55 35 134 52 175 17 41 42 109
55 150 14 41 53 163 88 270 35 107 107 301 160 430 53 129 106 259 117 289 12
30 33 74 48 98 23 36 27 51 22 91 -5 53 -35 102 -60 102 -9 -1 -33 -7 -52 -14z"/>
<path d="M12140 10659 c-42 -16 -60 -54 -80 -167 -35 -203 -50 -277 -65 -327
-8 -27 -20 -114 -26 -194 -5 -79 -12 -147 -14 -151 -2 -4 -18 -90 -36 -191
-29 -170 -31 -202 -33 -434 l-1 -250 33 -80 c49 -120 49 -120 137 -118 123 4
305 30 400 58 50 15 155 51 235 82 194 74 217 81 318 93 112 14 143 30 170 86
28 57 28 107 0 146 l-21 31 -81 -6 c-45 -3 -110 -15 -146 -26 -315 -95 -413
-115 -610 -119 -147 -3 -166 -1 -177 14 -22 30 -17 301 7 415 10 52 26 162 34
244 9 83 27 229 41 325 18 127 25 217 25 325 0 137 -2 153 -23 189 -29 50 -54
67 -87 55z"/>
<path d="M17124 10660 c-38 -15 -62 -58 -74 -133 -13 -87 -33 -185 -66 -329
-13 -59 -28 -169 -34 -245 -5 -76 -13 -151 -19 -168 -5 -16 -21 -103 -35 -191
-22 -137 -26 -198 -28 -400 l-1 -239 32 -86 c43 -115 54 -125 145 -121 228 8
398 48 675 156 131 51 268 86 340 86 89 0 156 152 99 225 -21 27 -24 27 -98
22 -43 -3 -108 -14 -146 -25 -149 -45 -252 -72 -324 -86 -41 -9 -91 -20 -110
-26 -19 -5 -105 -10 -191 -10 -155 0 -156 0 -169 25 -16 31 -6 329 15 420 8
33 19 114 25 180 6 66 17 163 25 215 8 52 22 147 32 210 11 76 16 169 16 272
-1 165 -4 176 -57 236 -22 24 -22 24 -52 12z"/>
<path d="M19130 10654 c-140 -19 -422 -44 -432 -38 -4 3 -42 -7 -85 -22 -53
-18 -90 -39 -115 -63 -40 -38 -37 -30 -79 -256 -9 -48 -13 -185 -14 -430 -1
-198 -5 -446 -10 -552 -8 -188 -8 -193 21 -333 26 -125 33 -147 62 -181 l34
-39 87 0 c96 0 263 40 496 120 66 22 159 50 207 60 48 11 113 31 145 46 32 14
84 30 117 35 58 10 129 39 141 59 9 15 -32 68 -67 86 -54 28 -201 15 -330 -29
-171 -58 -215 -67 -358 -77 -163 -11 -310 2 -311 29 0 9 -2 75 -4 146 -2 72
-9 148 -14 170 -6 22 -11 59 -11 81 l0 42 73 26 c39 14 137 40 217 57 80 16
197 43 260 59 63 16 162 33 220 38 122 10 185 35 225 88 25 32 26 37 12 58
-10 15 -32 26 -69 34 -94 20 -149 22 -334 12 -157 -9 -193 -14 -270 -39 -147
-49 -287 -64 -314 -34 -7 7 0 95 30 392 7 63 14 120 17 128 3 7 20 21 37 30
26 14 79 18 306 24 260 7 521 28 602 50 66 17 122 108 104 167 -4 12 -23 24
-49 32 -112 33 -393 45 -547 24z"/>
<path d="M11455 10545 c-48 -22 -63 -39 -90 -96 -59 -130 -87 -366 -89 -754
-2 -449 8 -744 26 -785 9 -19 24 -61 34 -94 28 -92 87 -112 134 -46 19 27 22
50 30 242 26 578 31 694 40 828 18 268 29 385 46 476 16 87 16 92 -1 139 -22
57 -60 105 -83 105 -10 -1 -30 -7 -47 -15z"/>
</g>
</svg>
